<svg width="144" height="46" viewBox="0 0 144 46" fill="none" xmlns="http://www.w3.org/2000/svg">
<rect x="0.5" y="0.5" width="143" height="45" rx="12.5" fill="url(#paint0_linear_33_59461)"/>
<rect x="0.5" y="0.5" width="143" height="45" rx="12.5" stroke="url(#paint1_linear_33_59461)"/>
<g clip-path="url(#clip0_33_59461)">
<path d="M27 33C32.523 33 37 28.523 37 23V16C37 15.2044 36.6839 14.4413 36.1213 13.8787C35.5587 13.3161 34.7956 13 34 13H27.5V17.387C27.5 18.388 27.561 19.425 28.086 20.277C28.4618 20.8876 28.9646 21.4102 29.5602 21.8094C30.1558 22.2086 30.8303 22.475 31.538 22.5905L31.7295 22.6215C31.8084 22.6485 31.8769 22.6995 31.9255 22.7674C31.974 22.8352 32.0001 22.9166 32.0001 23C32.0001 23.0834 31.974 23.1648 31.9255 23.2326C31.8769 23.3005 31.8084 23.3515 31.7295 23.3785L31.538 23.4095C30.504 23.5784 29.5493 24.0678 28.8085 24.8086C28.0677 25.5493 27.5784 26.5041 27.4095 27.538L27.3785 27.7295C27.3515 27.8084 27.3005 27.877 27.2326 27.9255C27.1647 27.974 27.0834 28.0001 27 28.0001C26.9165 28.0001 26.8352 27.974 26.7673 27.9255C26.6994 27.877 26.6484 27.8084 26.6215 27.7295L26.5905 27.538C26.4749 26.8304 26.2085 26.1559 25.8093 25.5603C25.4101 24.9647 24.8875 24.4619 24.277 24.086C23.425 23.561 22.388 23.5 21.387 23.5H17.012C17.2735 28.7905 21.645 33 27 33Z" fill="white"/>
<path d="M17 22.5H21.387C22.388 22.5 23.425 22.439 24.277 21.914C24.943 21.5036 25.5036 20.943 25.914 20.277C26.439 19.425 26.5 18.388 26.5 17.387V13H20C19.2044 13 18.4413 13.3161 17.8787 13.8787C17.3161 14.4413 17 15.2044 17 16V22.5ZM40.2275 14C40.2275 14.2652 40.1221 14.5196 39.9346 14.7071C39.7471 14.8946 39.4927 15 39.2275 15C38.9623 15 38.7079 14.8946 38.5204 14.7071C38.3329 14.5196 38.2275 14.2652 38.2275 14C38.2275 13.7348 38.3329 13.4804 38.5204 13.2929C38.7079 13.1054 38.9623 13 39.2275 13C39.4927 13 39.7471 13.1054 39.9346 13.2929C40.1221 13.4804 40.2275 13.7348 40.2275 14ZM122.855 19.052C125.651 19.052 127 21.0045 127 23.266V27.5135H124.075V23.77C124.075 22.745 123.701 21.899 122.628 21.899C121.555 21.899 121.198 22.745 121.198 23.77V27.513H118.272V23.77C118.272 22.745 117.915 21.899 116.842 21.899C115.77 21.899 115.396 22.745 115.396 23.77V27.513H112.47V23.2655C112.47 21.004 113.819 19.0515 116.615 19.0515C118.143 19.0515 119.248 19.6535 119.752 20.646C120.288 19.6535 121.458 19.051 122.855 19.051V19.052ZM107.214 24.91C108.156 24.91 108.562 24.0475 108.562 23.022V19.377H111.488V23.38C111.488 25.772 110.09 27.7575 107.214 27.7575C104.337 27.7575 102.939 25.7725 102.939 23.38V19.377H105.865V23.022C105.865 24.047 106.271 24.91 107.214 24.91ZM98.6375 27.7735C96.801 27.7735 95.6145 27.139 94.9155 25.9025L97.0285 24.7145C97.321 25.235 97.7595 25.4955 98.491 25.4955C99.0925 25.4955 99.3685 25.284 99.3685 25.0235C99.3685 24.031 95.078 25.04 95.078 21.8835C95.078 20.3535 96.378 19.117 98.5885 19.117C100.522 19.117 101.579 20.0605 102.05 20.972L99.9375 22.176C99.759 21.688 99.206 21.395 98.6535 21.395C98.231 21.395 98.0035 21.574 98.0035 21.818C98.0035 22.827 102.294 21.8995 102.294 24.9585C102.294 26.667 100.62 27.7735 98.6375 27.7735ZM88.4165 31.256H85.491V23.429C85.491 20.939 87.36 19.133 89.9605 19.133C92.496 19.133 94.43 21.0695 94.43 23.429C94.43 26.0325 92.707 27.7575 90.123 27.7575C89.5215 27.7575 88.9205 27.5785 88.4165 27.3015V31.256ZM89.9605 25.0075C90.887 25.0075 91.5045 24.2915 91.5045 23.445C91.5045 22.583 90.887 21.883 89.9605 21.883C89.034 21.883 88.4165 22.583 88.4165 23.4455C88.4165 24.2915 89.034 25.0075 89.9605 25.0075ZM82.5605 18.515C81.6015 18.515 80.8055 17.7175 80.8055 16.7575C80.8055 15.7975 81.6015 15 82.5605 15C83.5195 15 84.316 15.7975 84.316 16.7575C84.316 17.7175 83.5195 18.515 82.5605 18.515ZM81.098 19.377H84.0235V27.5135H81.098V19.377ZM75.485 27.7575C72.9495 27.7575 71.0155 25.805 71.0155 23.429C71.0155 21.0695 72.9495 19.117 75.485 19.117C78.0205 19.117 79.9545 21.0695 79.9545 23.429C79.9545 25.805 78.0205 27.7575 75.485 27.7575ZM75.485 25.0075C76.4115 25.0075 77.029 24.2915 77.029 23.445C77.029 22.583 76.4115 21.867 75.485 21.867C74.5585 21.867 73.941 22.583 73.941 23.445C73.941 24.2915 74.5585 25.0075 75.485 25.0075ZM65.4915 31.5C63.4765 31.5 62.0135 30.605 61.266 29.01L63.6875 27.7085C63.9475 28.262 64.435 28.8315 65.4425 28.8315C66.4995 28.8315 67.198 28.164 67.2795 26.9925C66.8895 27.3345 66.2715 27.5945 65.3455 27.5945C63.086 27.5945 61.2655 25.8535 61.2655 23.4125C61.2655 21.0535 63.2 19.133 65.7355 19.133C68.336 19.133 70.205 20.9395 70.205 23.429V26.651C70.205 29.58 68.173 31.5 65.4915 31.5ZM65.6865 24.845C66.564 24.845 67.2305 24.2425 67.2305 23.3475C67.2305 22.469 66.5645 21.883 65.6865 21.883C64.825 21.883 64.1425 22.469 64.1425 23.348C64.1425 24.243 64.825 24.8445 65.6865 24.8445V24.845ZM56.3035 27.7575C53.768 27.7575 51.8335 25.805 51.8335 23.429C51.8335 21.0695 53.768 19.117 56.3035 19.117C58.8385 19.117 60.773 21.0695 60.773 23.429C60.773 25.805 58.839 27.7575 56.3035 27.7575ZM56.3035 25.0075C57.23 25.0075 57.8475 24.2915 57.8475 23.445C57.8475 22.583 57.23 21.867 56.3035 21.867C55.377 21.867 54.7595 22.583 54.7595 23.445C54.7595 24.2915 55.377 25.0075 56.3035 25.0075ZM46.5065 16.53V24.747H51.35V27.5135H46.1C44.2475 27.5135 43.5 26.537 43.5 24.991V16.53H46.5065Z" fill="white"/>
</g>
<defs>
<linearGradient id="paint0_linear_33_59461" x1="72" y1="1" x2="72" y2="45" gradientUnits="userSpaceOnUse">
<stop stop-color="white" stop-opacity="0.05"/>
<stop offset="1" stop-color="white" stop-opacity="0.12"/>
</linearGradient>
<linearGradient id="paint1_linear_33_59461" x1="72" y1="1" x2="72" y2="45" gradientUnits="userSpaceOnUse">
<stop stop-color="white" stop-opacity="0.1"/>
<stop offset="1" stop-color="white" stop-opacity="0.4"/>
</linearGradient>
<clipPath id="clip0_33_59461">
<rect width="110" height="20" fill="white" transform="translate(17 13)"/>
</clipPath>
</defs>
</svg>
