<svg width="22" height="20" viewBox="0 0 22 20" fill="none" xmlns="http://www.w3.org/2000/svg">
<path fill-rule="evenodd" clip-rule="evenodd" d="M14.3522 0.0571428C14.1082 -0.0571429 13.8642 0.0571428 13.8042 0.288571C13.7432 0.346667 13.7432 0.404762 13.7432 0.52V1.32952L13.7532 1.42857C13.8054 1.6245 13.9318 1.79513 14.1082 1.90762C18.8625 3.52667 21.3006 8.55524 19.5325 13.0057C18.6185 15.4343 16.6074 17.2829 14.1082 18.1505C13.8642 18.2657 13.7432 18.439 13.7432 18.7286V19.5381L13.7482 19.6219C13.7577 19.7134 13.7978 19.7995 13.8626 19.8676C13.9275 19.9356 14.0135 19.9821 14.1082 20C14.1692 20 14.2912 20 14.3522 19.9429C15.7239 19.5349 16.9972 18.8726 18.099 17.9941C19.2008 17.1156 20.1092 16.0382 20.772 14.824C21.4347 13.6097 21.8387 12.2827 21.9607 10.9191C22.0826 9.55559 21.9202 8.18254 21.4827 6.87905C20.3866 3.58381 17.7044 1.09714 14.3522 0.0571428ZM7.89181 0C7.8308 0 7.70879 -5.58794e-08 7.64779 0.0571428C6.27613 0.465071 5.00276 1.12736 3.90098 2.00588C2.7992 2.8844 1.89078 3.96179 1.22803 5.17602C0.565282 6.39026 0.161292 7.71735 0.0393209 9.08088C-0.0826499 10.4444 0.0798088 11.8175 0.517342 13.121C1.61341 16.359 4.23458 18.8448 7.64779 19.8848C7.89181 20 8.13582 19.8848 8.19582 19.6533C8.25683 19.5962 8.25683 19.5371 8.25683 19.4219V18.6124L8.24683 18.5362C8.20482 18.3752 8.04782 18.1914 7.89181 18.0924C3.13751 16.4733 0.699354 11.4448 2.46746 6.99429C3.38152 4.56571 5.39265 2.71714 7.89181 1.84952C8.13582 1.73429 8.25683 1.56095 8.25683 1.27143V0.461905L8.25183 0.378095C8.24232 0.286642 8.20219 0.200522 8.13736 0.132443C8.07254 0.0643644 7.98645 0.0179328 7.89181 0ZM11.427 3.00571H10.512L10.424 3.01333C10.224 3.05143 10.0779 3.21524 10.0239 3.46857V4.7981L9.81693 4.82857C8.10882 5.11809 7.03875 6.24095 7.03875 7.63048C7.03875 9.53714 8.25683 10.2886 10.817 10.5781C12.5241 10.8667 13.0721 11.2143 13.0721 12.139C13.0721 13.0629 12.2191 13.699 11.061 13.699C9.47591 13.699 8.92787 13.0638 8.74486 12.1962C8.68485 11.9657 8.50084 11.8495 8.31783 11.8495H7.28177L7.20276 11.8562C7.10415 11.8714 7.01465 11.9201 6.95084 11.9933C6.88704 12.0664 6.85325 12.1592 6.85574 12.2543V12.3114L6.88874 12.4829C7.17876 13.839 8.15482 14.8095 10.0859 15.0867V16.4743L10.0939 16.5581C10.1339 16.7467 10.307 16.8857 10.574 16.9362H11.488L11.576 16.9286C11.776 16.8905 11.9221 16.7267 11.9761 16.4743V15.0857L12.1831 15.0476C13.8962 14.7029 15.0233 13.5229 15.0233 12.0219C15.0233 9.99905 13.7432 9.30571 11.183 9.01619C9.3539 8.78476 8.98887 8.32286 8.98887 7.51333C8.98887 6.70381 9.59891 6.18381 10.817 6.18381C11.9141 6.18381 12.5241 6.53048 12.8281 7.3981C12.8598 7.48199 12.9177 7.55463 12.9941 7.60622C13.0704 7.65782 13.1615 7.68589 13.2551 7.68667H14.2302L14.3092 7.68095C14.4082 7.66597 14.4981 7.61722 14.5621 7.54381C14.6261 7.47039 14.6599 7.37731 14.6572 7.2819V7.22476L14.6202 7.06C14.4701 6.46801 14.1277 5.93619 13.6419 5.54019C13.156 5.14419 12.5514 4.90417 11.9141 4.85429V3.46857L11.9061 3.38476C11.8661 3.19524 11.694 3.05619 11.427 3.00571Z" fill="white"/>
</svg>
