<svg width="22" height="22" viewBox="0 0 22 22" fill="none" xmlns="http://www.w3.org/2000/svg">
<path d="M10.4268 1.15357C10.6622 0.679929 11.3378 0.679929 11.5732 1.15356L14.3921 6.82711C14.4853 7.01467 14.6643 7.14477 14.8715 7.17544L21.1385 8.10317C21.6616 8.18061 21.8704 8.8232 21.4927 9.19337L16.9679 13.6275C16.8183 13.7741 16.7499 13.9846 16.7848 14.1911L17.8391 20.4381C17.9271 20.9596 17.3805 21.3567 16.9117 21.1118L11.2963 18.1788C11.1107 18.0818 10.8893 18.0818 10.7037 18.1788L5.08832 21.1118C4.61954 21.3567 4.07292 20.9596 4.16093 20.4381L5.21521 14.1911C5.25006 13.9846 5.18166 13.7741 5.03208 13.6275L0.507314 9.19337C0.12958 8.8232 0.338367 8.18061 0.861542 8.10317L7.1285 7.17544C7.33567 7.14477 7.51474 7.01467 7.60793 6.82711L10.4268 1.15357Z" fill="url(#paint0_linear_59_15)"/>
<defs>
<linearGradient id="paint0_linear_59_15" x1="11" y1="0" x2="11" y2="24" gradientUnits="userSpaceOnUse">
<stop stop-color="#7CFFBB"/>
<stop offset="1" stop-color="#4B9970"/>
</linearGradient>
</defs>
</svg>
