<svg width="10" height="12" viewBox="0 0 10 12" fill="none" xmlns="http://www.w3.org/2000/svg">
<path d="M9.25311 0V0.927896H0.747925V0H9.25311ZM0.747925 12H9.25311V11.0721H0.747925V12ZM7.18328 3.31264H2.8179C3.06556 4.28897 3.94888 5.01376 5.00059 5.01376C6.0523 5.01376 6.93559 4.28839 7.18328 3.31264ZM4.03408 6C2.63781 5.58393 1.61906 4.29113 1.61906 2.7595V1.49148H8.38184V2.7595C8.38184 4.29113 7.36313 5.58395 5.96682 6C7.36309 6.41607 8.38184 7.70887 8.38184 9.2405V10.5085H1.61906V9.2405C1.61906 7.70887 2.63777 6.41605 4.03408 6ZM5.00051 5.57733C6.55412 5.57733 7.81833 4.31315 7.81833 2.7595V2.05504H2.18268V2.7595C2.18268 4.31311 3.44685 5.57733 5.00051 5.57733ZM2.18268 9.2405V9.94496H7.81833V9.2405C7.81833 7.68689 6.55416 6.42267 5.00051 6.42267C3.44685 6.42267 2.18268 7.68685 2.18268 9.2405ZM7.25477 9.31535C7.25477 8.73198 6.91685 8.1629 6.42373 7.92625C6.24322 7.84039 6.0506 7.79801 5.86292 7.73197C5.6769 7.66593 5.48978 7.57292 5.36154 7.41057C5.27679 7.3049 5.22505 7.16236 5.2234 7.02477C5.1502 7.01761 4.85136 7.01761 4.77816 7.02477C4.7765 7.16291 4.72477 7.3049 4.64002 7.41057C4.51178 7.57237 4.32466 7.66539 4.13864 7.73197C3.95152 7.79801 3.75835 7.84039 3.57782 7.92625C3.0847 8.1629 2.74679 8.73198 2.74679 9.31535V9.40836H7.25531V9.31535H7.25477Z" fill="#FFBB00"/>
</svg>
